<?xml version="1.0" encoding="UTF-8"?><!-- Generator: Adobe Illustrator 19.2.1, SVG Export Plug-In . SVG Version: 6.00 Build 0)  -->
<svg xmlns:xlink="http://www.w3.org/1999/xlink" style="enable-background:new 0 0 16 16;"
    id="Calque_1" version="1.1" viewBox="0 0 16 16" x="0px" xmlns="http://www.w3.org/2000/svg"
    y="0px" xml:space="preserve">
<style type="text/css">
	.st1{clip-path:url(#SVGID_2_);fill:#FFFFFF;}
</style>
    <g>
	<defs>
		<rect height="16" id="SVGID_1_" width="16" />
	</defs>
        <clipPath id="SVGID_2_">
		<use style="overflow:visible;" xlink:href="#SVGID_1_" />
	</clipPath>
        <path class="st1"
            d="M4.3,12.1c-0.5,0-1.1-0.1-1.6-0.2l0.1-1.2c0.4,0.2,0.9,0.3,1.4,0.3c1.3,0,1.9-1.2,2-2.3l0,0   C5.7,8.9,5.2,9.2,4.6,9.2c-1.4,0-2.3-1-2.3-2.4c0-1.6,1-2.8,2.7-2.8c2.1,0,2.8,1.8,2.8,3.6C7.7,9.7,6.8,12.1,4.3,12.1 M4.9,5.1   c-0.8,0-1.1,0.8-1.1,1.5c0,0.7,0.3,1.5,1.1,1.5c0.6,0,1-0.2,1.1-0.5c0.1-0.1,0.1-0.5,0.1-0.6C6.2,6.2,5.9,5.1,4.9,5.1" />
        <path class="st1"
            d="M10.7,12.1c-0.7,0-1.3-0.1-1.9-0.3l0.1-1.3c0.4,0.2,1,0.4,1.6,0.4c0.8,0,1.6-0.5,1.6-1.4c0-1-0.9-1.5-1.9-1.5   C9.9,8,9.4,8.1,9,8.1l0.2-4.1h4.3v1.2h-3l-0.1,1.6c0.1,0,0.3,0,0.5,0c1.5,0,2.8,0.9,2.8,2.6C13.7,10.8,12.7,12.1,10.7,12.1" />
</g>
</svg>